<?xml version="1.0" encoding="UTF-8" standalone="no"?>
<!--
  - /*
  -  *
  -  *  * Software Name : Compose
  -  *  * SPDX-FileCopyrightText: Copyright (c) Orange SA
  -  *  * SPDX-License-Identifier:  MIT
  -  *  *
  -  *  * This software is distributed under the MIT License,
  -  *  * see the "LICENSE.txt" file for more details or https://spdx.org/licenses/MIT.html
  -  *  *
  -  *  * <Authors: optional: authors list / see CONTRIBUTORS>
  -  *
  -  */
  -->

<svg
   width="512"
   height="512"
   style="overflow: visible;"
   viewBox="0 0 512 512"
   data-svgdocument=""
   id="_lozZXmrQ4Bjc2v8Jjk5tP"
   class="fl-svgdocument"
   x="0"
   y="0"
   version="1.1"
   sodipodi:docname="smartchain.svg"
   inkscape:version="1.3 (0e150ed, 2023-07-21)"
   xmlns:inkscape="http://www.inkscape.org/namespaces/inkscape"
   xmlns:sodipodi="http://sodipodi.sourceforge.net/DTD/sodipodi-0.dtd"
   xmlns="http://www.w3.org/2000/svg"
   xmlns:svg="http://www.w3.org/2000/svg">
  <sodipodi:namedview
     id="namedview1"
     pagecolor="#ffffff"
     bordercolor="#000000"
     borderopacity="0.25"
     inkscape:showpageshadow="2"
     inkscape:pageopacity="0.0"
     inkscape:pagecheckerboard="0"
     inkscape:deskcolor="#d1d1d1"
     inkscape:zoom="1.7460938"
     inkscape:cx="256"
     inkscape:cy="256"
     inkscape:window-width="1866"
     inkscape:window-height="1136"
     inkscape:window-x="54"
     inkscape:window-y="27"
     inkscape:window-maximized="1"
     inkscape:current-layer="_lozZXmrQ4Bjc2v8Jjk5tP" />
  <defs
     id="_OCOhh_n_vN0Rio0Fz3bQR"
     transform="matrix(0.7754893344140974, 0, 0, 0.7754893344140974, -81.92650430207993, 101.79068281867556)"
     data-uid="o_elkmek8ik_6">
    <linearGradient
       id="linearGradientSke8mc8dclee"
       x1="0.28632488"
       y1="63.69383"
       x2="76.435796"
       y2="63.69383"
       data-uid="o_elkmek8ik_7"
       gradientTransform="matrix(6.4872125,0,0,3.7618425,8.6868348,10.949328)"
       gradientUnits="userSpaceOnUse">
      <stop
         id="_BHsq4p1qAd5KargPr_mGY"
         offset="0%"
         stop-color="#ffc04a"
         data-uid="o_elkmek8ik_8" />
      <stop
         id="_Fil-3fkmygADUM_R7pzLf"
         offset="100%"
         stop-color="#ff6347"
         data-uid="o_elkmek8ik_9" />
    </linearGradient>
  </defs>
  <path
     id="_tMLbDoPeHYDf8vvgFsJ3A"
     fill="url('#linearGradientSke8mc8dclee')"
     d="m 487.36068,196.26458 c 9.48978,0 17.18141,-7.69657 17.18141,-17.18636 0,-9.48485 -7.69163,-17.18141 -17.18141,-17.18141 -9.48979,0 -17.18142,7.69656 -17.18142,17.18141 0,2.08469 0.39027,4.07552 1.07199,5.92803 l -50.1561,42.7263 -63.54852,-37.38119 c 0.36063,-1.46718 0.57305,-2.99859 0.57305,-4.5794 0,-10.58154 -8.57589,-19.15742 -19.15743,-19.15742 -4.29288,0 -8.23997,1.42766 -11.43123,3.81369 l -57.41793,-45.59151 c 0.26676,-1.08681 0.42484,-2.21313 0.42484,-3.37898 0,-7.81018 -6.32817,-14.13342 -14.13342,-14.13342 -7.80524,0 -14.13342,6.32818 -14.13342,14.13342 0,3.60128 1.35851,6.88146 3.57658,9.37617 l -28.82506,61.69107 c -1.28441,-0.22231 -2.59846,-0.36556 -3.95202,-0.36556 -4.24842,0 -8.21032,1.18067 -11.61401,3.19619 l -76.26413,-34.16029 c 0.17783,-1.1115 0.2964,-2.24277 0.2964,-3.40368 0,-11.75726 -9.52932,-21.28657 -21.28658,-21.28657 -11.75234,0 -21.286587,9.52931 -21.286587,21.28657 0,11.75727 9.529314,21.28658 21.286587,21.28658 6.67891,0 12.62671,-3.07764 16.52933,-7.88428 l 72.52948,32.48562 c -1.89697,3.32958 -2.9986,7.17292 -2.9986,11.28302 0,4.20891 1.44744,7.92875 3.42838,11.31267 l -40.67124,40.691 c -5.61188,-4.00636 -12.37971,-6.39239 -19.77493,-6.39239 -13.05156,0 -24.28024,7.41498 -30.04524,18.19906 l -0.47425,-0.15808 c -0.005,0.0592 -0.0197,0.11366 -0.0247,0.1729 L 45.998894,253.02055 c 0.07908,-0.66196 0.123446,-1.33875 0.123446,-2.02046 0,-9.82572 -7.963324,-17.78904 -17.789039,-17.78904 -9.825715,0 -17.789039,7.96332 -17.789039,17.78904 0,9.82571 7.963324,17.78903 17.789039,17.78903 5.206798,0 9.875119,-2.24772 13.125664,-5.81441 l 57.911941,26.3254 c -0.0247,0.0642 -0.0445,0.12358 -0.0741,0.18278 l 0.27664,0.0938 c -0.26676,1.71914 -0.53352,3.42838 -0.53352,5.21174 0,9.65281 4.016244,18.35713 10.448164,24.57663 l -0.0839,0.0642 c 0.0197,0.0247 0.0395,0.0495 0.0592,0.0692 l -29.50678,43.48212 c -0.765705,-0.13338 -1.551166,-0.21736 -2.361329,-0.21736 -7.306307,0 -13.229393,5.91815 -13.229393,13.22939 0,7.30631 5.923086,13.2294 13.229393,13.2294 7.306294,0 13.229393,-5.92309 13.229393,-13.2294 0,-2.47495 -0.691611,-4.78689 -1.877215,-6.76783 l 26.498311,-39.04599 3.50742,-4.33239 c 4.35217,2.01059 9.18351,3.16656 14.29644,3.16656 9.39593,0 17.92736,-3.80877 24.12215,-9.9591 l 34.54561,24.65567 c -0.98306,2.53918 -1.64996,5.23644 -1.64996,8.1066 0,12.58718 10.20116,22.80809 22.8081,22.80809 10.66552,0 19.58721,-7.32605 22.08686,-17.20117 l 78.62548,-24.31976 c 4.82641,8.96616 14.2915,15.06709 25.18921,15.06709 6.28865,0 12.08825,-2.05999 16.81091,-5.5032 l 35.173,32.65853 c -0.18773,0.95342 -0.29147,1.94143 -0.29147,2.9492 0,8.56601 6.94568,15.51168 15.51168,15.51168 8.56602,0 15.50675,-6.94073 15.50675,-15.51168 0,-8.56107 -6.94073,-15.50675 -15.50675,-15.50675 -3.49259,0 -6.70854,1.16585 -9.30206,3.11716 L 363.2326,334.64958 c 2.72689,-4.3818 4.41143,-9.53425 4.41143,-15.06709 0,-13.90617 -8.20537,-25.49054 -23.02546,-28.04453 v -87.41378 c 4.94002,-0.84969 5.34511,-2.36135 7.47427,-4.33736 l 65.86044,38.76934 55.22456,77.33613 c -0.45448,1.1362 -0.72123,2.37616 -0.72123,3.68033 0,5.55752 4.49542,10.06283 10.05295,10.06283 5.55753,0 10.06284,-4.50531 10.06284,-10.06283 0,-5.55754 -4.51024,-10.06284 -10.06778,-10.06284 -0.1482,0 -0.2964,0.0147 -0.4446,0.0247 l -53.0065,-74.19918 49.05941,-41.7877 c 2.66762,1.71419 5.83911,2.71702 9.24774,2.71702 z M 310.37431,319.57261 c 0,1.0374 0.0642,2.05505 0.1729,3.06281 l -75.45891,23.33669 c -2.57871,-9.75655 -11.44111,-16.969 -22.02265,-16.969 -5.54765,0 -10.44322,2.22795 -14.3903,5.49826 l -34.76791,-24.80882 c 2.20819,-4.54483 3.542,-9.53426 3.542,-14.90407 0,-7.37052 -2.40579,-14.18282 -6.37263,-19.75517 l 40.67124,-40.691 c 3.38885,1.98095 7.10376,3.42838 11.3176,3.42838 8.11152,0 15.21035,-4.23361 19.25128,-10.60624 l 85.07716,73.67556 c -4.3571,5.02402 -7.01978,11.55968 -7.01978,18.7326 z m 24.35433,-28.04455 c -4.94002,0.49401 -5.60693,1.34863 -7.88427,2.4799 l -90.69891,-78.27967 c 0.0104,-0.25689 -0.11366,-0.50389 -0.11366,-0.76076 0,-7.33594 -3.54693,-13.84197 -8.92169,-18.01135 l 28.64722,-61.39466 c 0.22724,0.01 0.43473,0.0346 0.66197,0.0346 2.61821,0 5.05364,-0.72618 7.15809,-1.97107 l 57.40806,45.59152 c -0.74594,2.0501 -0.55822,4.25336 -0.55822,6.56036 0,8.67962 4.42132,15.9958 14.30137,18.35219 z"
     data-uid="o_elkmek8ik_10"
     style="fill:url(#linearGradientSke8mc8dclee);stroke-width:4.94003" />
</svg>
